<svg width="512" height="512" viewBox="0 0 512 512" fill="none" xmlns="http://www.w3.org/2000/svg">
<g clip-path="url(#clip0_12_80)">
<path d="M512 0H0V512H512V0Z" fill="url(#paint0_linear_12_80)"/>
<path fill="#0F73FF" d="M13.873 3.805C21.21 9.332 29.103 20.537 32 26.55v15.882c0-.338-.13.044-.41.867-1.512 4.456-7.418 21.847-20.923 7.944-7.111-7.32-3.819-14.64 9.125-16.85-7.405 1.264-15.73-.825-18.014-9.015C1.12 23.022 0 8.51 0 6.55 0-3.268 8.579-.182 13.873 3.805ZM50.127 3.805C42.79 9.332 34.897 20.537 32 26.55v15.882c0-.338.13.044.41.867 1.512 4.456 7.418 21.847 20.923 7.944 7.111-7.32 3.819-14.64-9.125-16.85 7.405 1.264 15.73-.825 18.014-9.015C62.88 23.022 64 8.51 64 6.55c0-9.818-8.578-6.732-13.873-2.745Z"></path>
</g>
<defs>
<linearGradient id="paint0_linear_12_80" x1="256" y1="0" x2="256" y2="512" gradientUnits="userSpaceOnUse">
<stop stop-color="#9fdc8c"/>
<stop offset="0.5" stop-color="#9fdc8c"/>
<stop offset="1" stop-color="#f7e626"/>
</linearGradient>
<clipPath id="clip0_12_80">
<rect width="512" height="512" fill="white"/>
</clipPath>
</defs>
</svg>
