<svg xmlns="http://www.w3.org/2000/svg" fill-rule="evenodd" stroke-linejoin="round" stroke-miterlimit="2" clip-rule="evenodd" viewBox="0 0 80 80"><g transform="translate(0 -3)"><circle cx="40" cy="43" r="40" fill="#14B8A6"/><path fill="#fff" fill-rule="nonzero" d="M12.92 48.284c1.105 0 2.065.384 2.833 1.152s1.152 1.68 1.152 2.784-.384 2.064-1.152 2.832-1.728 1.152-2.832 1.152-2.064-.384-2.784-1.152c-.768-.816-1.152-1.776-1.152-2.832s.384-1.968 1.152-2.784c.768-.768 1.68-1.152 2.784-1.152ZM30.843 37.34l-3.12 13.584c-.48 2.16-1.152 4.416-1.968 6.768-1.248 3.456-2.689 6.048-4.369 7.68-1.488 1.488-2.976 2.208-4.463 2.208-.816 0-1.44-.24-1.872-.672-.385-.384-.528-.912-.528-1.536 0-.912.335-1.68 1.056-2.16.287-.192.624-.336 1.008-.336.576 0 1.152.384 1.776 1.2.335.384.576.576.816.576.192 0 .384-.192.624-.624s.575-1.296.912-2.688c.48-1.584.816-3.024 1.055-4.272l3.552-19.728H21.82c-.433 0-.624-.096-.624-.288 0-.048.047-.288.143-.624l.192-.72c.048-.288.145-.432.24-.48.049-.048.24-.048.672-.048h3.264c.145-.72.24-1.2.24-1.392.384-2.16.624-3.552.768-4.128.145-.624.385-1.344.72-2.208 2.305-6 5.665-9.024 10.128-9.024 1.68 0 2.928.432 3.84 1.296q.864.864.864 1.872c0 .576-.191 1.104-.672 1.536-.431.432-.911.672-1.488.672-.432 0-.768-.144-1.104-.384-.288-.192-.623-.672-.96-1.392-.48-1.008-1.008-1.488-1.632-1.488-.335 0-.816.192-1.343.624-.577.384-.96.96-1.297 1.776-.768 2.112-1.488 5.28-2.112 9.408-.096.528-.24 1.488-.431 2.832h4.32c.431 0 .624.048.624.192v.192c-.048.144-.096.24-.096.288l-.193.768c-.047.384-.143.576-.191.624-.097.048-.288.096-.672.096h-4.176ZM36.79 40.844l-1.103-.672a17.4 17.4 0 0 1 2.112-3.552c1.584-1.92 3.12-2.928 4.656-2.928 1.584 0 2.4.96 2.4 2.784 0 1.056-.24 2.496-.672 4.368.336-.384 1.008-1.296 2.112-2.736s2.448-2.592 4.08-3.504c1.056-.576 2.16-.912 3.36-.912.96 0 1.728.288 2.4.816.672.576 1.056 1.344 1.056 2.352 0 .288-.192 1.44-.624 3.456.288-.288 1.296-1.392 3.072-3.264.96-1.056 2.16-1.92 3.552-2.592a9.2 9.2 0 0 1 3.648-.768c.864 0 1.536.288 2.112.816.672.624 1.008 1.44 1.008 2.4q0 2.016-2.304 7.776c-1.296 3.168-1.92 5.232-1.92 6.144 0 .768.288 1.104.912 1.104q1.008 0 3.312-3.168l1.056 1.104c-3.12 4.224-5.952 6.384-8.352 6.384-.864 0-1.488-.288-1.968-.864-.48-.48-.672-1.104-.672-1.872 0-1.152.816-3.648 2.4-7.536 1.632-4.032 2.448-6.48 2.448-7.488q0-.648-.432-1.008c-.336-.288-.672-.432-1.104-.432-.96 0-2.16.72-3.6 2.112-1.632 1.632-3.168 4.128-4.656 7.584-1.104 2.64-1.968 4.896-2.592 6.72q-.648 1.944-.864 2.16c-.24.24-.72.336-1.392.336-1.056 0-1.92-.096-2.496-.336-.288-.144-.432-.288-.432-.528 0-.192.096-.528.24-.96l3.6-10.272c.768-2.304 1.2-3.936 1.2-4.944 0-.528-.144-.96-.48-1.296-.288-.384-.72-.576-1.2-.576-.912 0-1.92.576-2.928 1.776-1.344 1.488-2.88 4.272-4.656 8.448-.096.24-.72 1.824-1.824 4.656-.624 1.584-.96 2.448-1.008 2.64-.192.624-.48 1.008-.72 1.152-.288.192-.72.24-1.296.24-1.824 0-2.784-.336-2.784-1.056q0-.576.288-1.296l3.024-7.68c.24-.528.624-1.776 1.248-3.792.336-1.056.528-1.776.528-2.208 0-.384-.096-.672-.288-.912a.92.92 0 0 0-.768-.432c-.864 0-1.776.768-2.688 2.256Z"/></g></svg>
